<?xml version="1.0" encoding="UTF-8" standalone="no"?>
<!DOCTYPE svg PUBLIC "-//W3C//DTD SVG 20010904//EN"
              "http://www.w3.org/TR/2001/REC-SVG-20010904/DTD/svg10.dtd">

<svg xmlns="http://www.w3.org/2000/svg"
     width="4.16667in" height="4.16667in"
     viewBox="0 0 300 300">
  <path id="axis"
        fill="#001c30" stroke="#001c30" stroke-width="1"
        d="M 20.00,7.00
           C 20.00,7.00 20.00,280.00 20.00,280.00
             20.00,280.00 40.00,281.00 40.00,281.00
             40.00,281.00 89.00,281.00 89.00,281.00
             89.00,281.00 99.00,280.05 99.00,280.05
             99.00,280.05 112.00,280.05 112.00,280.05
             112.00,280.05 127.00,281.00 127.00,281.00
             127.00,281.00 176.00,281.00 176.00,281.00
             176.00,281.00 186.00,279.13 186.00,279.13
             186.00,279.13 200.00,279.13 200.00,279.13
             200.00,279.13 216.00,281.00 216.00,281.00
             216.00,281.00 265.00,281.00 265.00,281.00
             265.00,281.00 281.00,279.00 281.00,279.00
             281.00,279.00 292.00,279.00 292.00,279.00
             292.00,279.00 292.00,292.00 292.00,292.00
             292.00,292.00 7.00,292.00 7.00,292.00
             7.00,292.00 7.00,7.00 7.00,7.00
             7.00,7.00 20.00,7.00 20.00,7.00 Z" />
  <path id="bars"
        fill="#1b8ee0" stroke="#1b8ee0" stroke-width="1"
        d="M 97.00,24.00
           C 97.00,24.00 97.00,280.00 97.00,280.00
             97.00,280.00 30.00,280.00 30.00,280.00
             30.00,280.00 30.00,24.00 30.00,24.00
             30.00,24.00 97.00,24.00 97.00,24.00 Z
           M 184.00,73.00
           C 184.00,73.00 184.00,232.00 184.00,232.00
             184.00,232.00 184.00,266.00 184.00,266.00
             184.00,266.00 182.98,278.40 182.98,278.40
             182.98,278.40 175.00,280.00 175.00,280.00
             175.00,280.00 117.00,280.00 117.00,280.00
             117.00,280.00 117.00,73.00 117.00,73.00
             117.00,73.00 184.00,73.00 184.00,73.00 Z
           M 273.00,135.00
           C 273.00,135.00 273.00,246.00 273.00,246.00
             273.00,246.00 273.00,271.00 273.00,271.00
             273.00,272.99 273.23,276.81 271.98,278.40
             270.41,280.38 266.30,280.00 264.00,280.00
             264.00,280.00 213.00,280.00 213.00,280.00
             205.51,279.86 206.01,277.74 206.00,271.00
             206.00,271.00 206.00,135.00 206.00,135.00
             206.00,135.00 273.00,135.00 273.00,135.00 Z" />
</svg>
